<?xml version="1.0" encoding="UTF-8"?>
<svg version="1.1" xmlns="http://www.w3.org/2000/svg" width="1366" height="768">
<path d="M0 0 C1.92681397 -0.00693695 3.85362772 -0.01393205 5.78044128 -0.02098083 C11.90050498 -0.0401247 18.02053489 -0.04489726 24.140625 -0.046875 C25.7008029 -0.04797964 25.7008029 -0.04797964 27.29249954 -0.0491066 C57.64488217 -0.06662957 87.83645453 0.16980577 118.08166504 2.9909668 C120.43740818 3.20742366 122.79399901 3.4094943 125.15136719 3.60742188 C131.84642573 4.17069286 138.54000905 4.76089133 145.22265625 5.45703125 C146.15827393 5.55314697 147.0938916 5.6492627 148.05786133 5.74829102 C150.390625 6.203125 150.390625 6.203125 153.390625 8.203125 C153.953125 11.015625 153.953125 11.015625 153.390625 14.203125 C149.8305137 18.20825021 147.47965662 19.58708695 142.03710938 20.13793945 C136.56067869 20.2728294 131.11144428 19.6408654 125.66656494 19.11053467 C121.71988416 18.72919189 117.76991529 18.38468831 113.8203125 18.03515625 C112.61470169 17.9276001 112.61470169 17.9276001 111.38473511 17.81787109 C66.6763901 13.84253541 21.65724769 13.46510111 -23.17907715 15.1138916 C-25.46074736 15.19766783 -27.74254538 15.27635042 -30.02441406 15.35449219 C-63.55317403 16.55314164 -97.16171576 20.31938025 -130.38598633 24.87109375 C-133.84084083 25.22696758 -137.13966911 25.39346315 -140.609375 25.203125 C-142.609375 23.203125 -142.609375 23.203125 -143.046875 20.390625 C-142.45532699 16.08077518 -140.94293144 14.93589828 -137.609375 12.203125 C-134.13085938 11.12670898 -134.13085938 11.12670898 -130.203125 10.51171875 C-129.14563049 10.33944008 -129.14563049 10.33944008 -128.06677246 10.16368103 C-125.91703508 9.82075404 -123.76477355 9.5082136 -121.609375 9.203125 C-120.41441406 9.02539551 -119.21945312 8.84766602 -117.98828125 8.66455078 C-114.36613685 8.15474109 -110.74130939 7.70014958 -107.109375 7.265625 C-106.43871002 7.18452484 -105.76804504 7.10342468 -105.07705688 7.01986694 C-91.3457872 5.37392161 -77.57722097 4.16670397 -63.796875 3.015625 C-62.79124512 2.93104034 -61.78561523 2.84645569 -60.74951172 2.75930786 C-57.80081515 2.51327193 -54.85171108 2.27300618 -51.90234375 2.03515625 C-51.06031906 1.96552673 -50.21829437 1.89589722 -49.35075378 1.82415771 C-32.91077294 0.5297153 -16.48613959 0.03717222 0 0 Z " fill="#FFC318" transform="translate(390.609375,110.796875)"/>
</svg>
